<?xml version="1.0" encoding="UTF-8"?>
<svg id="Layer_1" data-name="Layer 1" xmlns="http://www.w3.org/2000/svg" viewBox="0 0 505.62 123.02">
  <defs>
    <style>
      .cls-1 {
        fill: #f4fd94;
      }

      .cls-1, .cls-2 {
        stroke: #231f20;
        stroke-miterlimit: 10;
        stroke-width: 2.5px;
      }

      .cls-2 {
        fill: #d9d9d9;
      }
    </style>
  </defs>
  <circle class="cls-1" cx="61.51" cy="61.51" r="60.26"/>
  <circle class="cls-2" cx="61.51" cy="61.51" r="23.61"/>
  <path class="cls-1" d="m444.11,1.25h-220.45c-33.28,0-60.26,26.98-60.26,60.26s26.98,60.26,60.26,60.26h220.45c33.28,0,60.26-26.98,60.26-60.26S477.39,1.25,444.11,1.25Z"/>
  <g>
    <path d="m220.57,30.46h16.38c11.97,0,21.42,3.42,21.42,16.11,0,7.2-2.52,12.42-9.99,14.94,8.37,1.53,12.78,6.21,12.78,15.84,0,13.05-9.18,18.36-21.87,18.36h-18.72V30.46Zm3.69,29.7h14.04c9.81,0,16.2-3.51,16.2-13.41s-6.93-12.78-17.1-12.78h-13.14v26.19Zm0,32.04h14.94c12.06,0,18-5.31,18-14.76,0-9.99-6.03-14.04-18.63-14.04h-14.31v28.8Z"/>
    <path d="m314.17,71.32V30.46h3.69v40.23c0,19.62-6.12,26.19-20.34,26.19s-20.34-6.57-20.34-26.19V30.46h3.69v40.86c0,15.75,4.5,22.05,16.65,22.05s16.65-6.3,16.65-22.05Zm-24.57-53.46v8.55h-3.69v-8.55h3.69Zm19.53,0v8.55h-3.78v-8.55h3.78Z"/>
    <path d="m357.91,65.74c-2.34.27-4.77.36-7.38.36h-10.53v29.61h-3.69V30.46h14.31c14.94,0,25.65,2.97,25.65,17.64,0,10.62-5.67,15.39-14.58,17.1l15.57,30.51h-4.14l-15.21-29.97Zm-17.91-31.77v28.62h10.44c12.33,0,21.87-1.71,21.87-14.4s-9.54-14.22-21.87-14.22h-10.44Z"/>
    <path d="m413.8,96.88c-15.21,0-23.76-14.13-23.76-33.84s8.55-33.75,23.76-33.75,23.76,13.95,23.76,33.75-8.55,33.84-23.76,33.84Zm0-64.08c-11.79,0-19.71,10.98-19.71,30.24s7.92,30.33,19.71,30.33,19.8-11.07,19.8-30.33-8.01-30.24-19.8-30.24Z"/>
  </g>
</svg>