<?xml version="1.0" encoding="utf-8"?>
<!-- Generator: Adobe Illustrator 27.4.0, SVG Export Plug-In . SVG Version: 6.00 Build 0)  -->
<svg version="1.1" id="Layer_1" xmlns="http://www.w3.org/2000/svg" xmlns:xlink="http://www.w3.org/1999/xlink" x="0px" y="0px"
	 viewBox="0 0 505.6 123" style="enable-background:new 0 0 505.6 123;" xml:space="preserve">
<style type="text/css">
	.st0{fill:#F4FD94;stroke:#231F20;stroke-width:2.5;stroke-miterlimit:10;}
	.st1{fill:#D9D9D9;stroke:#231F20;stroke-width:2.5;stroke-miterlimit:10;}
</style>
<g>
	<circle class="st0" cx="60.3" cy="61.5" r="60.3"/>
	<path class="st0" d="M376.8,1.2H222.4c-33.3,0-60.3,27-60.3,60.3s27,60.3,60.3,60.3h154.4c33.3,0,60.3-27,60.3-60.3
		S410.1,1.2,376.8,1.2z"/>
	<g id="qs3Mv2.tif_00000029734790247496280510000016395719154222857397_">
		<g>
			<path class="st1" d="M69.7,83.2c0,0.1,0.1,0.2,0.1,0.3h1c3.5,0,6.9,0,10.4,0c0.8,0,1.3-0.2,1.8-0.8c6.8-6.9,13.7-13.8,20.5-20.7
				c0.2-0.2,0.3-0.4,0.5-0.6c-0.1-0.2-0.2-0.3-0.3-0.4c-7-7.1-14-14.1-21.1-21.2c-0.3-0.3-0.8-0.4-1.2-0.4c-3.4,0-6.9,0-10.3,0h-1.3
				c5.4,5.7,10.9,11.3,16.2,16.9H65.3V39.6H55.1v16.8H34.5c5.4-5.6,10.8-11.2,16.2-16.9h-0.9c-3.5,0-7,0-10.4,0
				c-0.8,0-1.3,0.2-1.9,0.8C30.8,47.1,24,53.9,17.2,60.7c-0.3,0.3-0.5,0.6-0.8,0.8c0.1,0.2,0.2,0.3,0.3,0.3c7,7,14.1,14.1,21.1,21.1
				c0.3,0.3,0.9,0.5,1.3,0.5c3.7,0,7.3,0,11,0c0.3,0,0.5-0.1,1-0.1c-5.7-5.6-11.3-11.1-17-16.6h21.1v16.7h10.2V66.7h21.2
				C80.8,72.3,75.2,77.8,69.7,83.2L69.7,83.2z"/>
			<path class="st1" d="M69.7,83.2c5.6-5.4,11.1-10.9,16.8-16.5H65.4v16.7H55.2V66.7H34.1c5.7,5.6,11.3,11,17,16.6
				c-0.4,0.1-0.7,0.1-1,0.1c-3.7,0-7.3,0-11,0c-0.5,0-1-0.2-1.3-0.5c-7.1-7-14.1-14.1-21.1-21.1c-0.1-0.1-0.1-0.2-0.3-0.3
				c0.2-0.3,0.5-0.6,0.8-0.8c6.8-6.8,13.6-13.6,20.4-20.4c0.5-0.5,1.1-0.8,1.9-0.8c3.5,0,7,0,10.4,0h0.9
				c-5.4,5.7-10.9,11.3-16.2,16.9h20.6V39.6h10.2v16.8h20.8c-5.3-5.6-10.8-11.2-16.2-16.9h1.3c3.4,0,6.9,0,10.3,0
				c0.4,0,0.9,0.2,1.2,0.4c7,7,14.1,14.1,21.1,21.2c0.1,0.1,0.2,0.2,0.3,0.4c-0.2,0.2-0.3,0.4-0.5,0.6C96.8,69,89.9,75.9,83.1,82.7
				c-0.5,0.5-1,0.8-1.8,0.8c-3.5,0-6.9,0-10.4,0h-1C69.8,83.4,69.8,83.3,69.7,83.2L69.7,83.2z"/>
		</g>
	</g>
	<g>
		<path d="M237.5,29.3c10.7,0,18.9,6.1,21.3,17.5H255c-2.5-9.3-9.1-14-17.7-14c-6.5,0-15,3.3-15,12.2c0,7.7,5,11.7,13.4,14l4.9,1.3
			c8.6,2.3,19.6,6.2,19.6,18.2S249.9,96.9,239,96.9c-12.1,0-21-7.3-23.1-20.7h4c2.2,12.3,9.8,17.2,18.9,17.2
			c7.6,0,17.5-3.2,17.5-14.4c0-8.9-7.4-12.7-16.3-15l-5.4-1.5c-8.8-2.2-16.3-7-16.3-17.1C218.2,34,228.5,29.3,237.5,29.3L237.5,29.3
			z"/>
		<path d="M277.5,30.5h16.4c12,0,21.4,3.4,21.4,16.1c0,7.2-2.5,12.4-10,14.9c8.4,1.5,12.8,6.2,12.8,15.8c0,13.1-9.2,18.4-21.9,18.4
			h-18.7L277.5,30.5L277.5,30.5z M281.1,60.2h14c9.8,0,16.2-3.5,16.2-13.4S304.5,34,294.3,34h-13.1C281.1,34,281.1,60.2,281.1,60.2z
			 M281.1,92.2h14.9c12.1,0,18-5.3,18-14.8c0-10-6-14-18.6-14h-14.3V92.2z"/>
		<path d="M335.6,30.5H352c12,0,21.4,3.4,21.4,16.1c0,7.2-2.5,12.4-10,14.9c8.4,1.5,12.8,6.2,12.8,15.8c0,13.1-9.2,18.4-21.9,18.4
			h-18.7L335.6,30.5L335.6,30.5z M339.3,60.2h14c9.8,0,16.2-3.5,16.2-13.4S362.6,34,352.4,34h-13.1C339.3,34,339.3,60.2,339.3,60.2z
			 M339.3,92.2h14.9c12.1,0,18-5.3,18-14.8c0-10-6-14-18.6-14h-14.3V92.2z"/>
	</g>
</g>
</svg>
