<?xml version="1.0" standalone="no"?>
<!DOCTYPE svg PUBLIC "-//W3C//DTD SVG 20010904//EN"
 "http://www.w3.org/TR/2001/REC-SVG-20010904/DTD/svg10.dtd">
<svg version="1.0" xmlns="http://www.w3.org/2000/svg"
 width="512.000000pt" height="512.000000pt" viewBox="0 0 512.000000 512.000000"
 preserveAspectRatio="xMidYMid meet">
<metadata>
Created by potrace 1.14, written by Peter Selinger 2001-2017
</metadata>
<g transform="translate(0.000000,512.000000) scale(0.100000,-0.100000)"
fill="#000000" stroke="none">
<path d="M2320 5109 c-491 -47 -981 -246 -1366 -557 -599 -482 -954 -1224
-954 -1992 0 -577 204 -1155 568 -1606 482 -599 1224 -954 1992 -954 577 0
1155 204 1606 568 599 482 954 1224 954 1992 0 577 -204 1155 -568 1606 -433
538 -1071 879 -1767 944 -125 11 -340 11 -465 -1z m524 -104 c952 -111 1750
-761 2051 -1670 345 -1039 -38 -2182 -940 -2804 -972 -671 -2298 -548 -3135
289 -464 464 -720 1082 -720 1740 0 1158 801 2154 1933 2405 246 54 558 70
811 40z"/>
<path d="M2443 4198 c-284 -16 -593 -126 -833 -296 -122 -86 -306 -270 -392
-392 -218 -308 -320 -675 -296 -1068 17 -286 126 -591 296 -832 86 -122 270
-306 392 -392 424 -300 975 -381 1475 -216 125 41 312 136 425 216 122 86 306
270 392 392 218 308 320 675 296 1068 -36 613 -445 1174 -1023 1407 -228 92
-467 129 -732 113z m377 -114 c586 -101 1070 -537 1229 -1105 74 -266 74 -572
0 -838 -142 -510 -560 -928 -1070 -1070 -266 -74 -572 -74 -838 0 -449 126
-834 468 -1010 900 -82 201 -114 367 -114 589 0 222 32 388 114 589 271 664
980 1057 1689 935z"/>
<path d="M2385 3383 c-384 -82 -665 -429 -665 -823 0 -463 377 -840 840 -840
282 0 547 143 701 377 368 563 -36 1308 -708 1302 -54 0 -129 -7 -168 -16z
m338 -99 c40 -9 113 -35 162 -59 157 -76 264 -183 340 -340 53 -110 75 -205
75 -325 0 -120 -22 -215 -75 -325 -76 -157 -183 -264 -340 -340 -110 -53 -205
-75 -325 -75 -120 0 -215 22 -325 75 -157 76 -264 183 -340 340 -24 50 -50
122 -59 162 -20 92 -20 234 0 326 20 92 90 236 148 307 99 119 249 214 398
251 93 22 246 24 341 3z"/>
</g>
</svg>
